<svg width="50" height="50" viewBox="0 0 50 50" fill="none" xmlns="http://www.w3.org/2000/svg">
<path d="M47 17.1559C47 14.2779 45.4541 11.6217 42.9518 10.2001L28.95 2.24533C26.4992 0.85297 23.4965 0.853098 21.0458 2.24567L7.04763 10.2C4.54562 11.6217 3 14.2777 3 17.1555V32.8445C3 35.7223 4.54562 38.3783 7.04763 39.8L21.0458 47.7543C23.4965 49.1469 26.4992 49.147 28.95 47.7547L42.9518 39.7999C45.4541 38.3783 47 35.7221 47 32.8441V17.1559Z" fill="#2B6CB0"/>
<path d="M24.9971 37.2258C28.7453 37.2258 31.7847 34.2345 31.7847 30.5457V29.4117C31.7847 29.3133 31.8456 29.2277 31.9369 29.1934C32.9892 28.7783 39.2029 26.0524 38.3854 20.0228C37.5027 13.5267 29.3019 14.5452 25.1667 18.4266C25.071 18.5164 24.9276 18.5164 24.8362 18.4266C20.701 14.5452 12.5002 13.5267 11.6175 20.0228C10.7957 26.0524 17.0094 28.7783 18.066 29.1934C18.1573 29.2277 18.2182 29.3175 18.2182 29.4117V30.5457C18.2138 34.2388 21.2489 37.2258 24.9971 37.2258Z" fill="white"/>
<path d="M22.096 24.3535C22.1177 24.5845 21.8264 24.7086 21.6742 24.5332C21.1785 23.964 20.2306 23.1552 18.6391 22.7187C16.0302 22.0084 18.7957 20.4935 19.8653 20.9856C20.8307 21.4349 21.896 22.0597 22.096 24.3535Z" fill="#2B6CB0"/>
<path d="M27.9054 24.3536C27.8836 24.5847 28.1749 24.7088 28.3271 24.5333C28.8228 23.9642 29.7708 23.1554 31.3622 22.7189C33.9712 22.0085 31.2057 20.4936 30.136 20.9857C29.1707 21.4351 28.1054 22.0599 27.9054 24.3536Z" fill="#2B6CB0"/>
<path d="M26.5349 27.7553C26.8915 28.5299 27.4611 30.079 26.9654 31.1745C26.8958 31.3286 26.6828 31.3543 26.5697 31.2302C26.161 30.7766 25.4348 29.6425 26.0871 27.781C26.161 27.5756 26.448 27.5628 26.5349 27.7553Z" fill="#2B6CB0"/>
<path d="M23.4644 27.7554C23.1078 28.5299 22.5382 30.079 23.0339 31.1746C23.1035 31.3286 23.3165 31.3543 23.4296 31.2302C23.8383 30.7766 24.5645 29.6426 23.9122 27.781C23.8427 27.5756 23.5557 27.5628 23.4644 27.7554Z" fill="#2B6CB0"/>
<rect x="7" y="38" width="36" height="12" rx="6" fill="#C41C1C"/>
<path d="M14.1579 47H12.6664L14.3468 41.9091H16.236L17.9164 47H16.4249L15.3113 43.3111H15.2715L14.1579 47ZM13.8795 44.9915H16.6835V46.0256H13.8795V44.9915ZM18.4067 47V41.9091H19.7888V45.8864H21.8471V47H18.4067ZM22.4058 47V41.9091H24.6032C24.981 41.9091 25.3117 41.9837 25.595 42.1328C25.8784 42.282 26.0988 42.4916 26.2563 42.7617C26.4137 43.0318 26.4924 43.3475 26.4924 43.7088C26.4924 44.0734 26.4112 44.3891 26.2488 44.6559C26.0881 44.9227 25.8618 45.1282 25.5702 45.2724C25.2802 45.4165 24.9413 45.4886 24.5535 45.4886H23.241V44.4148H24.2751C24.4375 44.4148 24.5759 44.3866 24.6902 44.3303C24.8062 44.2723 24.8949 44.1902 24.9562 44.0842C25.0192 43.9781 25.0506 43.853 25.0506 43.7088C25.0506 43.563 25.0192 43.4387 24.9562 43.3359C24.8949 43.2315 24.8062 43.152 24.6902 43.0973C24.5759 43.041 24.4375 43.0128 24.2751 43.0128H23.7879V47H22.4058ZM26.9995 47V41.9091H28.3816V43.8977H30.2112V41.9091H31.5933V47H30.2112V45.0114H28.3816V47H26.9995ZM33.572 47H32.0805L33.7609 41.9091H35.6501L37.3305 47H35.839L34.7254 43.3111H34.6856L33.572 47ZM33.2935 44.9915H36.0975V46.0256H33.2935V44.9915Z" fill="white"/>
</svg>
