<svg width="206" height="50" viewBox="0 0 206 50" fill="none" xmlns="http://www.w3.org/2000/svg">
<path d="M44 17.1559C44 14.2779 42.4541 11.6217 39.9518 10.2001L25.95 2.24533C23.4992 0.85297 20.4965 0.853098 18.0458 2.24567L4.04763 10.2C1.54562 11.6217 0 14.2777 0 17.1555V32.8445C0 35.7223 1.54562 38.3783 4.04763 39.8L18.0458 47.7543C20.4965 49.1469 23.4992 49.147 25.95 47.7547L39.9518 39.7999C42.4541 38.3783 44 35.7221 44 32.8441V17.1559Z" fill="#2B6CB0"/>
<path d="M21.9971 37.2258C25.7453 37.2258 28.7847 34.2345 28.7847 30.5457V29.4117C28.7847 29.3133 28.8456 29.2277 28.9369 29.1934C29.9892 28.7783 36.2029 26.0524 35.3854 20.0228C34.5027 13.5267 26.3019 14.5452 22.1667 18.4266C22.071 18.5164 21.9276 18.5164 21.8362 18.4266C17.701 14.5452 9.50024 13.5267 8.61754 20.0228C7.79572 26.0524 14.0094 28.7783 15.066 29.1934C15.1573 29.2277 15.2182 29.3175 15.2182 29.4117V30.5457C15.2138 34.2388 18.2489 37.2258 21.9971 37.2258Z" fill="white"/>
<path d="M19.096 24.3535C19.1177 24.5845 18.8264 24.7086 18.6742 24.5332C18.1785 23.964 17.2306 23.1552 15.6391 22.7187C13.0302 22.0084 15.7957 20.4935 16.8653 20.9856C17.8307 21.4349 18.896 22.0597 19.096 24.3535Z" fill="#2B6CB0"/>
<path d="M24.9054 24.3536C24.8836 24.5847 25.1749 24.7088 25.3271 24.5333C25.8228 23.9642 26.7708 23.1554 28.3622 22.7189C30.9712 22.0085 28.2057 20.4936 27.136 20.9857C26.1707 21.4351 25.1054 22.0599 24.9054 24.3536Z" fill="#2B6CB0"/>
<path d="M23.5349 27.7553C23.8915 28.5299 24.4611 30.079 23.9654 31.1745C23.8958 31.3286 23.6828 31.3543 23.5697 31.2302C23.161 30.7766 22.4348 29.6425 23.0871 27.781C23.161 27.5756 23.448 27.5628 23.5349 27.7553Z" fill="#2B6CB0"/>
<path d="M20.4644 27.7554C20.1078 28.5299 19.5382 30.079 20.0339 31.1746C20.1035 31.3286 20.3165 31.3543 20.4296 31.2302C20.8383 30.7766 21.5645 29.6426 20.9122 27.781C20.8427 27.5756 20.5557 27.5628 20.4644 27.7554Z" fill="#2B6CB0"/>
<path d="M62.4 35.325C66.677 35.325 71.188 32.283 71.188 26.212C71.188 25.692 71.162 25.146 71.084 24.574H62.036V28.188H66.3C65.78 29.969 64.467 30.866 62.179 30.866C59.852 30.866 57.707 29.215 57.707 25.9C57.707 23.053 59.527 21.077 62.101 21.077C63.648 21.077 64.753 21.61 65.572 22.416L69.056 18.984C67.509 17.411 65.286 16.462 62.4 16.462C56.68 16.462 52.65 20.362 52.65 25.9C52.65 31.425 56.68 35.325 62.4 35.325ZM81.1641 35C86.8581 35 90.6021 31.386 90.6021 25.9C90.6021 20.414 86.8581 16.8 81.1641 16.8H73.1301V35H81.1641ZM78.0701 21.337H81.0341C84.0241 21.337 85.4671 23.235 85.4671 25.9C85.4671 28.526 84.0241 30.463 81.0341 30.463H78.0701V21.337ZM106.256 35V30.45H97.4939V16.8H92.5539V35H106.256ZM113.05 35.338C114.675 35.338 115.793 34.727 116.56 33.869V35H121.006V22.117H116.56V23.274C115.793 22.39 114.675 21.766 113.063 21.766C109.605 21.766 107.187 24.821 107.187 28.539C107.187 32.283 109.605 35.338 113.05 35.338ZM114.246 31.035C112.92 31.035 111.958 29.995 111.958 28.552C111.958 27.109 112.92 26.069 114.246 26.069C115.572 26.069 116.534 27.109 116.534 28.552C116.534 29.995 115.572 31.035 114.246 31.035ZM129.513 35.338C133.114 35.338 135.831 33.466 135.831 29.462V22.117H131.203V29.059C131.203 30.346 130.527 31.035 129.513 31.035C128.499 31.035 127.823 30.346 127.823 29.059V22.117H123.195V29.449C123.195 33.466 125.912 35.338 129.513 35.338ZM142.665 35V28.097C142.665 26.706 143.354 26.095 144.277 26.095C145.291 26.095 145.902 26.784 145.902 28.071V35H150.53V26.615C150.53 23.651 148.593 21.766 145.928 21.766C144.316 21.766 143.172 22.325 142.444 23.443V22.117H138.037V35H142.665ZM159.173 35.338C161.747 35.338 163.71 34.142 164.971 32.244L161.162 29.813C160.603 30.645 159.901 31.035 159.03 31.035C157.899 31.035 156.885 30.177 156.885 28.552C156.885 26.94 157.938 26.069 159.069 26.069C159.979 26.069 160.616 26.459 161.162 27.278L164.958 24.886C163.684 22.962 161.747 21.766 159.173 21.766C155.052 21.766 152.153 24.574 152.153 28.552C152.153 32.53 155.052 35.338 159.173 35.338ZM170.925 35V28.097C170.925 26.68 171.64 26.095 172.537 26.095C173.551 26.095 174.162 26.784 174.162 28.071V35H178.79V26.615C178.79 23.651 176.853 21.766 174.188 21.766C172.732 21.766 171.653 22.221 170.925 23.131V16.254H166.297V35H170.925ZM187.29 35.338C189.838 35.338 191.866 34.454 193.114 33.102L189.942 30.45C189.24 31.139 188.343 31.49 187.511 31.49C186.289 31.49 185.509 30.97 185.197 29.93H193.608C193.66 29.67 193.699 28.994 193.699 28.552C193.686 24.522 191.008 21.766 187.108 21.766C183.143 21.766 180.413 24.587 180.413 28.669C180.413 32.66 183.169 35.338 187.29 35.338ZM185.21 27.135C185.509 26.134 186.146 25.653 187.134 25.653C188.096 25.653 188.746 26.134 189.084 27.135H185.21ZM200.01 35V28.097C200.01 26.68 200.79 26.225 202.077 26.225C202.818 26.225 203.572 26.381 204.105 26.524L204.365 21.896C204.183 21.857 203.715 21.766 203.208 21.766C201.635 21.766 200.504 22.273 199.789 23.417V22.117H195.369V35H200.01Z" fill="#2B6CB0"/>
<rect x="4" y="38" width="36" height="12" rx="6" fill="#C41C1C"/>
<path d="M11.1579 47H9.66642L11.3468 41.9091H13.236L14.9164 47H13.4249L12.3113 43.3111H12.2715L11.1579 47ZM10.8795 44.9915H13.6835V46.0256H10.8795V44.9915ZM15.4067 47V41.9091H16.7888V45.8864H18.8471V47H15.4067ZM19.4058 47V41.9091H21.6032C21.981 41.9091 22.3117 41.9837 22.595 42.1328C22.8784 42.282 23.0988 42.4916 23.2563 42.7617C23.4137 43.0318 23.4924 43.3475 23.4924 43.7088C23.4924 44.0734 23.4112 44.3891 23.2488 44.6559C23.0881 44.9227 22.8618 45.1282 22.5702 45.2724C22.2802 45.4165 21.9413 45.4886 21.5535 45.4886H20.241V44.4148H21.2751C21.4375 44.4148 21.5759 44.3866 21.6902 44.3303C21.8062 44.2723 21.8949 44.1902 21.9562 44.0842C22.0192 43.9781 22.0506 43.853 22.0506 43.7088C22.0506 43.563 22.0192 43.4387 21.9562 43.3359C21.8949 43.2315 21.8062 43.152 21.6902 43.0973C21.5759 43.041 21.4375 43.0128 21.2751 43.0128H20.7879V47H19.4058ZM23.9995 47V41.9091H25.3816V43.8977H27.2112V41.9091H28.5933V47H27.2112V45.0114H25.3816V47H23.9995ZM30.572 47H29.0805L30.7609 41.9091H32.6501L34.3305 47H32.839L31.7254 43.3111H31.6856L30.572 47ZM30.2935 44.9915H33.0975V46.0256H30.2935V44.9915Z" fill="white"/>
</svg>
