<svg width="50" height="50" viewBox="0 0 50 50" fill="none" xmlns="http://www.w3.org/2000/svg">
<path d="M47 17.1559C47 14.2779 45.4541 11.6217 42.9518 10.2001L28.95 2.24533C26.4992 0.85297 23.4965 0.853098 21.0458 2.24567L7.04763 10.2C4.54562 11.6217 3 14.2777 3 17.1555V32.8445C3 35.7223 4.54562 38.3783 7.04763 39.8L21.0458 47.7543C23.4965 49.1469 26.4992 49.147 28.95 47.7547L42.9518 39.7999C45.4541 38.3783 47 35.7221 47 32.8441V17.1559Z" fill="#2B6CB0"/>
<path d="M24.9971 37.2258C28.7453 37.2258 31.7847 34.2345 31.7847 30.5457V29.4117C31.7847 29.3133 31.8456 29.2277 31.9369 29.1934C32.9892 28.7783 39.2029 26.0524 38.3854 20.0228C37.5027 13.5267 29.3019 14.5452 25.1667 18.4266C25.071 18.5164 24.9276 18.5164 24.8362 18.4266C20.701 14.5452 12.5002 13.5267 11.6175 20.0228C10.7957 26.0524 17.0094 28.7783 18.066 29.1934C18.1573 29.2277 18.2182 29.3175 18.2182 29.4117V30.5457C18.2138 34.2388 21.2489 37.2258 24.9971 37.2258Z" fill="white"/>
<path d="M22.096 24.3535C22.1177 24.5845 21.8264 24.7086 21.6742 24.5332C21.1785 23.964 20.2306 23.1552 18.6391 22.7187C16.0302 22.0084 18.7957 20.4935 19.8653 20.9856C20.8307 21.4349 21.896 22.0597 22.096 24.3535Z" fill="#2B6CB0"/>
<path d="M27.9054 24.3536C27.8836 24.5847 28.1749 24.7088 28.3271 24.5333C28.8228 23.9642 29.7708 23.1554 31.3622 22.7189C33.9712 22.0085 31.2057 20.4936 30.136 20.9857C29.1707 21.4351 28.1054 22.0599 27.9054 24.3536Z" fill="#2B6CB0"/>
<path d="M26.5349 27.7553C26.8915 28.5299 27.4611 30.079 26.9654 31.1745C26.8958 31.3286 26.6828 31.3543 26.5697 31.2302C26.161 30.7766 25.4348 29.6425 26.0871 27.781C26.161 27.5756 26.448 27.5628 26.5349 27.7553Z" fill="#2B6CB0"/>
<path d="M23.4644 27.7554C23.1078 28.5299 22.5382 30.079 23.0339 31.1746C23.1035 31.3286 23.3165 31.3543 23.4296 31.2302C23.8383 30.7766 24.5645 29.6426 23.9122 27.781C23.8427 27.5756 23.5557 27.5628 23.4644 27.7554Z" fill="#2B6CB0"/>
<rect x="7" y="38" width="36" height="12" rx="6" fill="#D79609"/>
<path d="M15.9458 47V41.9091H18.1532C18.541 41.9091 18.8666 41.9613 19.1301 42.0657C19.3953 42.1701 19.5949 42.3176 19.7292 42.5082C19.8651 42.6987 19.933 42.9233 19.933 43.1818C19.933 43.3691 19.8916 43.5398 19.8087 43.6939C19.7275 43.848 19.6132 43.9773 19.4657 44.0817C19.3182 44.1844 19.1458 44.2557 18.9486 44.2955V44.3452C19.1674 44.3535 19.3663 44.409 19.5452 44.5117C19.7242 44.6128 19.8667 44.7528 19.9728 44.9318C20.0789 45.1091 20.1319 45.3179 20.1319 45.5582C20.1319 45.8366 20.059 46.0844 19.9131 46.3015C19.769 46.5186 19.5635 46.6893 19.2967 46.8136C19.0298 46.9379 18.7117 47 18.3421 47H15.9458ZM17.3279 45.8963H17.9742C18.2062 45.8963 18.3802 45.8532 18.4962 45.767C18.6122 45.6792 18.6702 45.55 18.6702 45.3793C18.6702 45.2599 18.6429 45.1589 18.5882 45.076C18.5335 44.9931 18.4556 44.9302 18.3545 44.8871C18.2551 44.844 18.135 44.8224 17.9941 44.8224H17.3279V45.8963ZM17.3279 43.9673H17.8947C18.0156 43.9673 18.1225 43.9483 18.2153 43.9102C18.3081 43.872 18.3802 43.8174 18.4316 43.7461C18.4846 43.6732 18.5111 43.5845 18.5111 43.4801C18.5111 43.3227 18.4548 43.2025 18.3421 43.1197C18.2294 43.0352 18.0869 42.9929 17.9146 42.9929H17.3279V43.9673ZM20.6216 47V41.9091H24.2906V43.0227H22.0037V43.8977H24.1017V45.0114H22.0037V45.8864H24.2807V47H20.6216ZM24.8369 43.0227V41.9091H29.2616V43.0227H27.7303V47H26.3681V43.0227H24.8369ZM30.4616 47H28.9701L30.6505 41.9091H32.5397L34.2201 47H32.7286L31.615 43.3111H31.5752L30.4616 47ZM30.1832 44.9915H32.9872V46.0256H30.1832V44.9915Z" fill="white"/>
</svg>
